HIERARCHY
ROOT Hip
{
    OFFSET 0.0 0.0 0.0
    CHANNELS 6 Xposition Yposition Zposition Zrotation Xrotation Yrotation
    JOINT RightHip
    {
        OFFSET -6.463865811344549 0.0 0.0
        CHANNELS 3 Zrotation Xrotation Yrotation
        JOINT RightKnee
        {
            OFFSET 0.0 0.0 -23.41364584113836
            CHANNELS 3 Zrotation Xrotation Yrotation
            JOINT RightAnkle
            {
                OFFSET 0.0 0.0 -27.807878668422706
                CHANNELS 3 Zrotation Xrotation Yrotation
                End Site
                {
                    OFFSET 0.0 -11.123151467369084 0.0
                }
            }
        }
    }
    JOINT LeftHip
    {
        OFFSET 6.463865811344549 0.0 0.0
        CHANNELS 3 Zrotation Xrotation Yrotation
        JOINT LeftKnee
        {
            OFFSET 0.0 0.0 -23.41364584113836
            CHANNELS 3 Zrotation Xrotation Yrotation
            JOINT LeftAnkle
            {
                OFFSET 0.0 0.0 -27.807878668422706
                CHANNELS 3 Zrotation Xrotation Yrotation
                End Site
                {
                    OFFSET 0.0 -11.123151467369084 0.0
                }
            }
        }
    }
    JOINT Spine
    {
        OFFSET 0.0 0.0 19.294042092198698
        CHANNELS 3 Zrotation Xrotation Yrotation
        JOINT Thorax
        {
            OFFSET 0.0 0.0 21.36015011572316
            CHANNELS 3 Zrotation Xrotation Yrotation
            JOINT Neck
            {
                OFFSET 0.0 0.0 2.7479088144955854
                CHANNELS 3 Zrotation Xrotation Yrotation
                JOINT Head
                {
                    OFFSET 0.0 0.0 8.909501420683473
                    CHANNELS 3 Zrotation Xrotation Yrotation
                    End Site
                    {
                        OFFSET -3.563800568273389 0.0 0.0
                    }
                }
            }
            JOINT LeftShoulder
            {
                OFFSET 10.344226340972629 0.0 0.0
                CHANNELS 3 Zrotation Xrotation Yrotation
                JOINT LeftElbow
                {
                    OFFSET 23.86737130901483 0.0 0.0
                    CHANNELS 3 Zrotation Xrotation Yrotation
                    JOINT LeftWrist
                    {
                        OFFSET 13.683420285408946 0.0 0.0
                        CHANNELS 3 Zrotation Xrotation Yrotation
                        End Site
                        {
                            OFFSET 5.473368114163579 0.0 0.0
                        }
                    }
                }
            }
            JOINT RightShoulder
            {
                OFFSET -10.344226340972629 0.0 0.0
                CHANNELS 3 Zrotation Xrotation Yrotation
                JOINT RightElbow
                {
                    OFFSET -23.86737130901483 0.0 0.0
                    CHANNELS 3 Zrotation Xrotation Yrotation
                    JOINT RightWrist
                    {
                        OFFSET -13.683420285408946 0.0 0.0
                        CHANNELS 3 Zrotation Xrotation Yrotation
                        End Site
                        {
                            OFFSET -5.473368114163579 0.0 0.0
                        }
                    }
                }
            }
            JOINT Nose
            {
                OFFSET 0.0 0.0 8.867832575780968
                CHANNELS 3 Zrotation Xrotation Yrotation
                End Site
                {
                    OFFSET -3.5471330303123874 0.0 0.0
                }
            }
        }
    }
}
MOTION
Frames: 9
Frame Time: 0.03333333333333333
0.864381536821601 44.62782898495231 6.570713627635138 -1.0852427176057893 -1.2115206829822642 -0.5015996603748889 -13.534950329812471 -10.768488982903724 2.198595799495139 10.984872477448192 25.16126952304631 -10.818065598895155 0.0 0.0 -1.9878466759146977e-16 14.317026123271804 -11.26221212307587 -2.3097076455817875 -10.50316330008319 24.807911749873355 10.448177090334744 0.0 0.0 2.981770013872047e-16 5.946893711657437e-16 6.283176748825246 4.668230950074161e-17 3.3973745978741148 0.038141027691299685 1.313105115029191 -1.0948917765060433 -5.369259368686635 38.07656810058672 0.0 0.0 4.0378135604517306e-17 -36.78593000375 56.7632325611501 -9.856319125013489 -6.246248557559754e-15 3.400591031876689e-15 -110.25973401597899 0.0 0.0 -1.0933156717530838e-15 78.24779470872231 34.00369608036818 -1.8380128639867137 -1.6170670992999735e-14 -1.0620675056793624e-14 85.51736515204901 0.0 0.0 0.0 -3.9756933518293955e-16 4.310455369189608e-35 -1.2424041724466861e-17
0.8500782953815804 44.02071569763494 6.69837909272686 -1.893293965734131 -1.5676551273056238 2.735971372875508 -14.764354981334264 -10.40069088853194 1.3190821092346905 13.88077940846876 25.41816066229167 -11.22427379027427 0.0 0.0 -9.93923337957349e-17 15.021991601649399 -11.223231530258873 -1.8305150791741391 -9.600202402855324 25.184696599485065 10.008411037998993 0.0 0.0 -6.957463365701443e-16 -1.7714405065795474e-19 6.496970369223473 3.121063566689215e-18 2.7941619135899307 0.00031570552129073925 0.027086268076351897 1.1073031074701862 -6.027756344611412 46.10523318638732 0.0 0.0 -2.12761714531495e-15 -37.47579305010181 32.526459611699956 -8.8229043592853 -5.16215852768255e-15 -3.716965383507399e-15 -108.48913725727577 3.180554681463516e-15 6.620859447075238e-32 2.3854160110976368e-15 73.49888599342158 38.192136527591394 1.2236333913390987 3.3637306335302175e-15 -3.383216577320208e-15 89.66904758554931 0.0 0.0 -1.5902773407317584e-15 0.0 0.0 -1.1802839638243519e-16
0.8516652089157907 44.08807359664564 6.684214886993857 -2.485957367338563 -1.7729529538945457 4.932233143414242 -14.519984392544009 -11.332949004689329 1.8073970984919088 14.753344972881175 27.01509040797121 -12.376204246651147 0.0 0.0 -1.987846675914698e-16 15.13813211901367 -10.572085776344748 -2.3297117767332507 -8.173052977330828 24.773131837915546 10.0969185788475 -7.951386703658792e-16 -2.758691436281349e-33 3.975693351829396e-16 -9.474684717649864e-16 6.677772533147419 2.5878674106866427e-15 3.524941456131721 -0.0032409740725125196 -0.16298893447269766 1.8599420171902623 -6.615342873266397 53.82089127395854 1.9878466759146975e-16 -1.3222321844989123e-32 -7.622149597960419e-15 -53.89949594700887 -61.26803652137268 -12.530267670425282 -1.6324611030877538e-17 6.758658983212589e-15 -55.86819426270612 -7.951386703658792e-16 1.1034765745125397e-32 -1.5902773407317584e-15 68.587608868853 36.41592040650598 1.7921852637016857 1.4528372159469373e-14 3.742432660122148e-15 92.90088078503182 3.1805546814635168e-15 4.4139062980501586e-32 1.5902773407317584e-15 0.0 0.0 -3.6650923087177246e-16
0.8631953701300272 44.577481127618874 6.581300914649142 -2.6135324518017575 -1.7918560242049302 5.756706991812935 -13.745454173533398 -12.273231998020666 2.4272045344399906 13.657924872076043 28.934013604378833 -13.135100831178672 0.0 0.0 -1.987846675914698e-16 15.103321795986355 -9.889276238285227 -2.6101320813404025 -7.513231967819107 23.959926221564043 10.113734745583663 1.1034765745125397e-32 -1.5902773407317584e-15 7.951386703658792e-16 -3.716327821014556e-17 7.239667669685037 5.874483006150693e-16 3.464226134844269 0.002852888091656486 0.15681428028782796 2.2396793200662626 -5.705646073776421 57.81392233083214 0.0 0.0 -1.4846729860737901e-15 -58.8158627736503 -70.24428061605724 -20.407254510046315 -4.236364505039822e-15 6.190562634796384e-15 -47.21951226347602 -1.1927080055488188e-15 0.0 0.0 64.63592953801904 36.51572773427578 2.3127231507302874 5.4201009824361836e-15 3.689878004454503e-15 96.56472372840447 3.1805546814635168e-15 -4.4139062980501586e-32 -1.5902773407317584e-15 0.0 0.0 -4.162053977696399e-16
0.8699142337179484 44.86266902555133 6.521330812876284 -2.765330905645669 -2.0283908604404064 5.935064032719166 -14.085467346882007 -12.651503702626064 2.7049879904535072 12.947649438298482 29.542965941862647 -12.437318385501602 0.0 0.0 0.0 14.590469533544644 -8.932901892052177 -2.6971233387619677 -6.3129459895007605 23.017455413340073 8.89394876326903 0.0 0.0 -5.963540027744094e-16 -3.813970172797879e-16 7.668708458380358 -2.546060171337899e-16 4.256239132914831 0.012138761014177064 0.47227130248174215 2.0818195431163824 -5.351107140565005 58.5894735088982 0.0 0.0 1.2610402350333866e-15 -60.95487749410644 -71.02896080938284 -23.844737869523954 -1.6599957950762658e-14 -1.532002069194863e-14 -44.61960134676065 0.0 0.0 -7.951386703658792e-16 63.13658358991368 36.26041808107854 2.6385181264496453 7.27400910803702e-15 -6.175123013528549e-15 99.34216168167356 -3.1805546814635168e-15 -4.4139062980501586e-32 1.5902773407317584e-15 0.0 0.0 1.1181637552020177e-16
0.870417331056904 44.884023421376554 6.516840351323669 -3.708465731756337 -2.4086536038931765 6.067417987532713 -14.463438743692064 -12.28015778052909 2.698665285594794 10.737905668786375 29.32679150027899 -11.176637691198787 0.0 0.0 1.987846675914698e-16 14.773431758630688 -8.21221394490602 -2.4105083587792335 -4.837365618658067 22.522246497558747 7.716092688073575 0.0 0.0 5.963540027744094e-16 2.1461400111857865e-17 8.170964053016096 -3.0046954544641236e-16 5.008500475217039 0.004814096322577327 0.6360621510970144 3.2269017974273635 -5.692324723429043 59.7615918532856 -3.975693351829395e-16 1.6789223662993522e-32 -4.839164251679842e-15 -61.761347986021974 -71.24690791704984 -25.706332558379216 -5.2940665456714984e-15 6.058784682737966e-15 -43.31088902401172 -3.975693351829396e-16 0.0 0.0 64.34223899720938 34.34505210746062 2.466690310781607 0.0 0.0 100.51708891537743 0.0 0.0 1.5902773407317584e-15 0.0 0.0 -3.9135731432070616e-16
0.8669756754078465 44.73793941072234 6.5475593020569685 -3.8303192511105153 -2.7887001916456096 5.886278465924551 -16.228875137216203 -11.046631844963168 2.17498759152618 8.837576051060282 28.007224740057676 -8.817313862298525 0.0 0.0 0.0 14.696499888611385 -7.783563596846583 -2.2131343552325973 -4.684104865395352 22.438183409570772 7.116981872853834 -7.951386703658792e-16 4.138037154422024e-33 -5.963540027744094e-16 -1.704175411712788e-15 8.446701499854015 1.4837530020106108e-15 5.3666067610125 -0.015143798196060897 1.2964653646635245 3.858247179712364 -5.914278994509528 59.071413612489074 0.0 0.0 -5.131129232204815e-15 -63.67239962212646 -71.29417618795914 -27.951466537124276 -1.1767188450860478e-14 -1.564837463699286e-14 -43.27223285850639 -7.951386703658792e-16 -1.3793457181406746e-33 1.987846675914698e-16 65.55943460218819 31.382809772750523 1.5523023958397473 1.9144870271470604e-14 4.1992291324443186e-16 99.245965608681 3.1805546814635168e-15 0.0 0.0 -1.987846675914698e-16 1.2931366107568824e-34 -7.454425034680117e-17
0.8612562060286183 44.4951716527218 6.598609179208172 -2.9399867314521666 -2.91986587175487 5.252288469843591 -18.776220171584775 -9.426536633123018 1.669271649097781 6.194749548535175 25.701966696829686 -5.60456402844423 0.0 0.0 -3.975693351829396e-16 12.541683329473635 -7.425204535895269 -2.3194109863902983 -3.547457386602004 23.177521381041178 6.685675286193295 0.0 0.0 -5.963540027744094e-16 4.547625940791466e-17 8.827370808071821 -5.891769493395206e-16 3.3230248751296765 -0.09168168068993572 1.615244491931888 5.968048541018065 -6.08368393472088 58.82168754468624 0.0 0.0 -9.93923337957349e-16 -63.74291438691996 -72.13294657166878 -28.647058906163018 -8.006825517375005e-15 -1.7231158039691798e-14 -45.04904393076547 -7.951386703658792e-16 -4.138037154422024e-33 5.963540027744094e-16 67.10906828813538 30.703216615624644 1.5765676092943153 -7.77693369452221e-15 -1.656457914384471e-15 97.78800039484935 0.0 0.0 -1.5902773407317584e-15 0.0 0.0 7.171001582840718e-16
0.8971376110655109 46.018188505710235 6.27834497326656 -1.7658407978743225 -2.9421731865245926 4.668199674665982 -21.804009044137857 -8.422095210305194 1.43294975608297 5.259997570763845 22.844976333232058 -4.478955657514536 0.0 1.5902773407317584e-15 0.0 10.74758181692589 -6.9885414593955355 -2.3645597117780905 -3.029190801376546 22.365784114952227 7.026294465799657 0.0 0.0 5.963540027744094e-16 -4.829730732199215e-17 8.988672191813743 6.144520357654955e-16 1.783147231880996 -0.19932201147100878 2.464182076903629 6.571915152143051 -6.508741104663782 54.93233722012218 0.0 0.0 -2.33571984419977e-15 -65.94888046508191 -71.55899619442118 -27.95760215163815 -4.808995063055074e-15 5.771599141546954e-15 -48.62266675960284 0.0 0.0 0.0 68.1695912314897 30.489080391322624 1.2108899185232886 -7.095875361039509e-15 6.379020739628292e-15 96.09044584528111 0.0 0.0 -1.5902773407317584e-15 4.969616689786745e-17 1.5221295522450803e-34 3.5097917871618887e-16
